<svg id="visual" viewBox="0 0 960 540" width="960" height="540" xmlns="http://www.w3.org/2000/svg" xmlns:xlink="http://www.w3.org/1999/xlink" version="1.1"><rect x="0" y="0" width="960" height="540" fill="#ffffff"></rect><path d="M0 411L22.8 411.2C45.7 411.3 91.3 411.7 137 412C182.7 412.3 228.3 412.7 274 405C319.7 397.3 365.3 381.7 411.2 372.8C457 364 503 362 548.8 363.3C594.7 364.7 640.3 369.3 686 370.2C731.7 371 777.3 368 823 369.2C868.7 370.3 914.3 375.7 937.2 378.3L960 381L960 541L937.2 541C914.3 541 868.7 541 823 541C777.3 541 731.7 541 686 541C640.3 541 594.7 541 548.8 541C503 541 457 541 411.2 541C365.3 541 319.7 541 274 541C228.3 541 182.7 541 137 541C91.3 541 45.7 541 22.8 541L0 541Z" fill="#f6d9d7"></path><path d="M0 400L22.8 400.2C45.7 400.3 91.3 400.7 137 402.5C182.7 404.3 228.3 407.7 274 407.5C319.7 407.3 365.3 403.7 411.2 402C457 400.3 503 400.7 548.8 405.5C594.7 410.3 640.3 419.7 686 427.7C731.7 435.7 777.3 442.3 823 442.7C868.7 443 914.3 437 937.2 434L960 431L960 541L937.2 541C914.3 541 868.7 541 823 541C777.3 541 731.7 541 686 541C640.3 541 594.7 541 548.8 541C503 541 457 541 411.2 541C365.3 541 319.7 541 274 541C228.3 541 182.7 541 137 541C91.3 541 45.7 541 22.8 541L0 541Z" fill="#ecbdbf"></path><path d="M0 441L22.8 441.2C45.7 441.3 91.3 441.7 137 439.3C182.7 437 228.3 432 274 429.3C319.7 426.7 365.3 426.3 411.2 432C457 437.7 503 449.3 548.8 450C594.7 450.7 640.3 440.3 686 441.8C731.7 443.3 777.3 456.7 823 459C868.7 461.3 914.3 452.7 937.2 448.3L960 444L960 541L937.2 541C914.3 541 868.7 541 823 541C777.3 541 731.7 541 686 541C640.3 541 594.7 541 548.8 541C503 541 457 541 411.2 541C365.3 541 319.7 541 274 541C228.3 541 182.7 541 137 541C91.3 541 45.7 541 22.8 541L0 541Z" fill="#e0a2ac"></path><path d="M0 475L22.8 472.7C45.7 470.3 91.3 465.7 137 464C182.7 462.3 228.3 463.7 274 463.5C319.7 463.3 365.3 461.7 411.2 465.3C457 469 503 478 548.8 477.8C594.7 477.7 640.3 468.3 686 466C731.7 463.7 777.3 468.3 823 471C868.7 473.7 914.3 474.3 937.2 474.7L960 475L960 541L937.2 541C914.3 541 868.7 541 823 541C777.3 541 731.7 541 686 541C640.3 541 594.7 541 548.8 541C503 541 457 541 411.2 541C365.3 541 319.7 541 274 541C228.3 541 182.7 541 137 541C91.3 541 45.7 541 22.8 541L0 541Z" fill="#d2879d"></path><path d="M0 510L22.8 508.7C45.7 507.3 91.3 504.7 137 503.8C182.7 503 228.3 504 274 507.2C319.7 510.3 365.3 515.7 411.2 515C457 514.3 503 507.7 548.8 502.2C594.7 496.7 640.3 492.3 686 494.8C731.7 497.3 777.3 506.7 823 510.7C868.7 514.7 914.3 513.3 937.2 512.7L960 512L960 541L937.2 541C914.3 541 868.7 541 823 541C777.3 541 731.7 541 686 541C640.3 541 594.7 541 548.8 541C503 541 457 541 411.2 541C365.3 541 319.7 541 274 541C228.3 541 182.7 541 137 541C91.3 541 45.7 541 22.8 541L0 541Z" fill="#c26d91"></path></svg>