<svg id="visual" viewBox="0 0 960 540" width="960" height="540" xmlns="http://www.w3.org/2000/svg" xmlns:xlink="http://www.w3.org/1999/xlink" version="1.1"><rect x="0" y="0" width="960" height="540" fill="#010a11"></rect><path d="M0 375L22.8 375.3C45.7 375.7 91.3 376.3 137 374C182.7 371.7 228.3 366.3 274 373.5C319.7 380.7 365.3 400.3 411.2 401.5C457 402.7 503 385.3 548.8 382.5C594.7 379.7 640.3 391.3 686 392.2C731.7 393 777.3 383 823 376.2C868.7 369.3 914.3 365.7 937.2 363.8L960 362L960 541L937.2 541C914.3 541 868.7 541 823 541C777.3 541 731.7 541 686 541C640.3 541 594.7 541 548.8 541C503 541 457 541 411.2 541C365.3 541 319.7 541 274 541C228.3 541 182.7 541 137 541C91.3 541 45.7 541 22.8 541L0 541Z" fill="#845828"></path><path d="M0 431L22.8 428.3C45.7 425.7 91.3 420.3 137 414.8C182.7 409.3 228.3 403.7 274 400.5C319.7 397.3 365.3 396.7 411.2 402.3C457 408 503 420 548.8 421C594.7 422 640.3 412 686 408.7C731.7 405.3 777.3 408.7 823 411.7C868.7 414.7 914.3 417.3 937.2 418.7L960 420L960 541L937.2 541C914.3 541 868.7 541 823 541C777.3 541 731.7 541 686 541C640.3 541 594.7 541 548.8 541C503 541 457 541 411.2 541C365.3 541 319.7 541 274 541C228.3 541 182.7 541 137 541C91.3 541 45.7 541 22.8 541L0 541Z" fill="#986527"></path><path d="M0 443L22.8 440.2C45.7 437.3 91.3 431.7 137 428.2C182.7 424.7 228.3 423.3 274 423.8C319.7 424.3 365.3 426.7 411.2 428C457 429.3 503 429.7 548.8 432.7C594.7 435.7 640.3 441.3 686 444.3C731.7 447.3 777.3 447.7 823 448.7C868.7 449.7 914.3 451.3 937.2 452.2L960 453L960 541L937.2 541C914.3 541 868.7 541 823 541C777.3 541 731.7 541 686 541C640.3 541 594.7 541 548.8 541C503 541 457 541 411.2 541C365.3 541 319.7 541 274 541C228.3 541 182.7 541 137 541C91.3 541 45.7 541 22.8 541L0 541Z" fill="#ac7224"></path><path d="M0 474L22.8 472.3C45.7 470.7 91.3 467.3 137 465.2C182.7 463 228.3 462 274 460.7C319.7 459.3 365.3 457.7 411.2 458.7C457 459.7 503 463.3 548.8 466C594.7 468.7 640.3 470.3 686 472.3C731.7 474.3 777.3 476.7 823 478.2C868.7 479.7 914.3 480.3 937.2 480.7L960 481L960 541L937.2 541C914.3 541 868.7 541 823 541C777.3 541 731.7 541 686 541C640.3 541 594.7 541 548.8 541C503 541 457 541 411.2 541C365.3 541 319.7 541 274 541C228.3 541 182.7 541 137 541C91.3 541 45.7 541 22.8 541L0 541Z" fill="#c0801f"></path><path d="M0 500L22.8 501.7C45.7 503.3 91.3 506.7 137 506.5C182.7 506.3 228.3 502.7 274 503.3C319.7 504 365.3 509 411.2 510.2C457 511.3 503 508.7 548.8 509.3C594.7 510 640.3 514 686 513C731.7 512 777.3 506 823 500.8C868.7 495.7 914.3 491.3 937.2 489.2L960 487L960 541L937.2 541C914.3 541 868.7 541 823 541C777.3 541 731.7 541 686 541C640.3 541 594.7 541 548.8 541C503 541 457 541 411.2 541C365.3 541 319.7 541 274 541C228.3 541 182.7 541 137 541C91.3 541 45.7 541 22.8 541L0 541Z" fill="#d38f17"></path></svg>