<svg id="visual" viewBox="0 0 960 540" width="960" height="540" xmlns="http://www.w3.org/2000/svg" xmlns:xlink="http://www.w3.org/1999/xlink" version="1.1"><rect x="0" y="0" width="960" height="540" fill="#001220"></rect><path d="M0 347L22.8 337C45.7 327 91.3 307 137 311.7C182.7 316.3 228.3 345.7 274 354.2C319.7 362.7 365.3 350.3 411.2 343.2C457 336 503 334 548.8 333.2C594.7 332.3 640.3 332.7 686 338.2C731.7 343.7 777.3 354.3 823 360.5C868.7 366.7 914.3 368.3 937.2 369.2L960 370L960 541L937.2 541C914.3 541 868.7 541 823 541C777.3 541 731.7 541 686 541C640.3 541 594.7 541 548.8 541C503 541 457 541 411.2 541C365.3 541 319.7 541 274 541C228.3 541 182.7 541 137 541C91.3 541 45.7 541 22.8 541L0 541Z" fill="#fa7268"></path><path d="M0 363L22.8 361.3C45.7 359.7 91.3 356.3 137 361.7C182.7 367 228.3 381 274 390.2C319.7 399.3 365.3 403.7 411.2 405.7C457 407.7 503 407.3 548.8 392.2C594.7 377 640.3 347 686 333.8C731.7 320.7 777.3 324.3 823 331C868.7 337.7 914.3 347.3 937.2 352.2L960 357L960 541L937.2 541C914.3 541 868.7 541 823 541C777.3 541 731.7 541 686 541C640.3 541 594.7 541 548.8 541C503 541 457 541 411.2 541C365.3 541 319.7 541 274 541C228.3 541 182.7 541 137 541C91.3 541 45.7 541 22.8 541L0 541Z" fill="#ef5f67"></path><path d="M0 404L22.8 409C45.7 414 91.3 424 137 425.3C182.7 426.7 228.3 419.3 274 417.5C319.7 415.7 365.3 419.3 411.2 417.7C457 416 503 409 548.8 401C594.7 393 640.3 384 686 378.8C731.7 373.7 777.3 372.3 823 383.5C868.7 394.7 914.3 418.3 937.2 430.2L960 442L960 541L937.2 541C914.3 541 868.7 541 823 541C777.3 541 731.7 541 686 541C640.3 541 594.7 541 548.8 541C503 541 457 541 411.2 541C365.3 541 319.7 541 274 541C228.3 541 182.7 541 137 541C91.3 541 45.7 541 22.8 541L0 541Z" fill="#e34c67"></path><path d="M0 465L22.8 461.5C45.7 458 91.3 451 137 443C182.7 435 228.3 426 274 423.5C319.7 421 365.3 425 411.2 430.2C457 435.3 503 441.7 548.8 446.2C594.7 450.7 640.3 453.3 686 453.5C731.7 453.7 777.3 451.3 823 448.2C868.7 445 914.3 441 937.2 439L960 437L960 541L937.2 541C914.3 541 868.7 541 823 541C777.3 541 731.7 541 686 541C640.3 541 594.7 541 548.8 541C503 541 457 541 411.2 541C365.3 541 319.7 541 274 541C228.3 541 182.7 541 137 541C91.3 541 45.7 541 22.8 541L0 541Z" fill="#d53867"></path><path d="M0 493L22.8 492.7C45.7 492.3 91.3 491.7 137 489.2C182.7 486.7 228.3 482.3 274 483.5C319.7 484.7 365.3 491.3 411.2 491.8C457 492.3 503 486.7 548.8 481.8C594.7 477 640.3 473 686 475.8C731.7 478.7 777.3 488.3 823 495.2C868.7 502 914.3 506 937.2 508L960 510L960 541L937.2 541C914.3 541 868.7 541 823 541C777.3 541 731.7 541 686 541C640.3 541 594.7 541 548.8 541C503 541 457 541 411.2 541C365.3 541 319.7 541 274 541C228.3 541 182.7 541 137 541C91.3 541 45.7 541 22.8 541L0 541Z" fill="#c62368"></path></svg>